<?xml version="1.0" standalone="no"?>
<!DOCTYPE svg PUBLIC "-//W3C//DTD SVG 20010904//EN"
 "http://www.w3.org/TR/2001/REC-SVG-20010904/DTD/svg10.dtd">
<svg version="1.0" xmlns="http://www.w3.org/2000/svg"
 width="1024.000000pt" height="1024.000000pt" viewBox="0 0 1024.000000 1024.000000"
 preserveAspectRatio="xMidYMid meet">

<g transform="translate(0.000000,1024.000000) scale(0.100000,-0.100000)"
fill="#000000" stroke="none">
<path d="M9823 3186 c1 -6 -4 -10 -10 -8 -7 1 -12 -4 -10 -10 1 -8 -7 -13 -20
-12 -12 1 -21 -4 -20 -10 1 -6 -8 -10 -20 -10 -12 1 -21 -4 -20 -10 1 -6 -4
-10 -10 -8 -7 1 -12 -4 -10 -10 1 -8 -7 -13 -20 -12 -12 1 -21 -4 -20 -10 1
-6 -8 -10 -20 -10 -12 1 -21 -4 -20 -10 1 -6 -4 -10 -10 -9 -7 2 -12 -3 -10
-10 1 -7 -7 -12 -20 -11 -12 1 -21 -4 -20 -10 1 -6 -8 -10 -20 -10 -12 1 -21
-4 -20 -10 1 -6 -4 -10 -10 -9 -7 2 -12 -3 -10 -10 1 -7 -7 -12 -20 -11 -12 1
-21 -4 -20 -10 1 -6 -8 -10 -20 -10 -12 1 -21 -4 -20 -10 1 -6 -4 -10 -11 -8
-6 1 -11 -4 -10 -10 2 -8 -6 -13 -19 -12 -12 1 -21 -4 -20 -10 1 -6 -8 -10
-20 -10 -12 1 -21 -4 -20 -10 1 -6 -4 -10 -11 -8 -6 1 -11 -4 -10 -10 2 -8 -6
-13 -19 -12 -12 1 -21 -4 -20 -10 1 -6 -8 -10 -20 -10 -12 1 -21 -4 -20 -10 1
-6 -4 -10 -11 -8 -6 1 -11 -4 -10 -10 2 -8 -6 -13 -19 -12 -12 1 -21 -4 -20
-10 1 -6 -4 -10 -11 -8 -6 1 -11 -4 -10 -10 2 -8 -6 -13 -19 -12 -12 1 -21 -4
-20 -10 1 -6 -8 -10 -20 -10 -12 1 -21 -4 -20 -10 1 -6 -4 -10 -10 -9 -7 2
-12 -3 -10 -10 1 -7 -7 -12 -20 -11 -12 1 -21 -4 -20 -10 1 -6 -8 -10 -20 -10
-12 1 -21 -4 -20 -10 1 -6 -4 -10 -10 -9 -7 2 -12 -3 -10 -10 1 -7 -7 -12 -20
-11 -12 1 -21 -4 -20 -10 1 -6 -8 -10 -20 -10 -12 1 -21 -4 -20 -10 1 -6 -4
-10 -10 -9 -7 2 -12 -3 -10 -10 1 -7 -7 -12 -20 -11 -12 1 -21 -4 -20 -10 1
-6 -8 -10 -20 -10 -12 1 -21 -4 -20 -10 1 -6 -4 -10 -10 -9 -7 2 -12 -3 -10
-10 1 -7 -7 -12 -20 -11 -12 1 -21 -4 -20 -10 1 -6 -8 -10 -20 -10 -12 1 -21
-4 -20 -10 1 -6 -4 -10 -10 -9 -7 2 -12 -3 -10 -10 1 -7 -7 -12 -20 -11 -12 1
-21 -4 -20 -10 1 -6 -8 -10 -20 -10 -12 1 -21 -4 -20 -10 1 -6 -4 -10 -10 -9
-7 2 -12 -3 -10 -10 1 -7 -7 -12 -20 -11 -12 1 -21 -4 -20 -10 1 -6 -8 -10
-20 -10 -12 1 -21 -4 -20 -10 1 -6 -4 -10 -10 -9 -7 2 -12 -3 -10 -10 1 -7 -7
-12 -20 -11 -12 1 -21 -4 -20 -10 1 -6 -8 -10 -20 -10 -12 1 -21 -4 -20 -10 1
-6 -4 -10 -11 -8 -6 1 -11 -4 -10 -10 2 -8 -6 -13 -19 -12 -12 1 -21 -4 -20
-10 1 -6 -8 -10 -20 -10 -12 1 -21 -4 -20 -10 1 -6 -4 -10 -11 -8 -6 1 -11 -4
-10 -10 2 -8 -6 -13 -19 -12 -12 1 -21 -4 -20 -10 1 -6 -4 -10 -11 -8 -6 1
-11 -4 -10 -10 2 -8 -6 -13 -19 -12 -12 1 -21 -4 -20 -10 1 -6 -8 -10 -20 -10
-12 1 -21 -4 -20 -10 1 -6 -4 -10 -11 -8 -6 1 -11 -4 -10 -10 2 -8 -6 -13 -19
-12 -12 1 -21 -4 -20 -10 1 -6 -8 -10 -20 -10 -12 1 -21 -4 -20 -10 1 -6 -4
-10 -11 -8 -6 1 -11 -4 -10 -10 2 -8 -6 -13 -19 -12 -12 1 -21 -4 -20 -10 1
-6 -8 -10 -20 -10 -12 1 -21 -4 -20 -10 1 -6 -4 -10 -11 -8 -6 1 -11 -4 -10
-10 2 -8 -6 -13 -19 -12 -12 1 -21 -4 -20 -10 1 -6 -8 -10 -20 -10 -12 1 -21
-4 -20 -10 1 -6 -4 -10 -11 -8 -6 1 -11 -4 -10 -10 2 -8 -6 -13 -19 -12 -12 1
-21 -4 -20 -10 1 -6 -8 -10 -20 -10 -12 1 -21 -4 -20 -10 1 -6 -4 -10 -11 -8
-6 1 -11 -4 -10 -10 2 -8 -6 -13 -19 -12 -12 1 -21 -4 -20 -10 1 -6 -8 -10
-20 -10 -12 1 -21 -4 -20 -10 1 -6 -4 -10 -11 -8 -6 1 -11 -4 -10 -10 2 -8 -6
-13 -19 -12 -12 1 -21 -4 -20 -10 1 -6 -8 -10 -20 -10 -12 1 -21 -4 -20 -10 1
-6 -4 -10 -11 -8 -6 1 -11 -4 -10 -10 2 -8 -6 -13 -19 -12 -12 1 -21 -4 -20
-10 1 -6 -8 -10 -20 -10 -12 1 -21 -4 -20 -10 1 -6 -4 -10 -11 -8 -6 1 -11 -4
-10 -10 2 -8 -6 -13 -19 -12 -12 1 -21 -4 -20 -10 1 -6 -8 -10 -20 -10 -12 1
-21 -4 -20 -10 1 -6 -4 -10 -11 -8 -6 1 -11 -4 -10 -10 2 -8 -6 -13 -19 -12
-12 1 -21 -4 -20 -10 1 -6 -4 -10 -11 -8 -6 1 -11 -4 -10 -10 2 -8 -6 -13 -19
-12 -12 1 -21 -4 -20 -10 1 -6 -8 -10 -20 -10 -12 1 -21 -4 -20 -10 1 -6 -4
-10 -11 -8 -6 1 -11 -4 -10 -10 2 -8 -6 -13 -19 -12 -12 1 -21 -4 -20 -10 1
-6 -8 -10 -20 -10 -12 1 -21 -4 -20 -10 1 -6 -4 -10 -11 -8 -6 1 -11 -4 -10
-10 2 -8 -6 -13 -19 -12 -12 1 -21 -4 -20 -10 1 -6 -8 -10 -20 -10 -12 1 -21
-4 -20 -10 1 -6 -4 -10 -11 -8 -6 1 -11 -4 -10 -10 2 -8 -6 -13 -19 -12 -12 1
-21 -4 -20 -10 1 -6 -8 -10 -20 -10 -12 1 -21 -4 -20 -10 1 -6 -4 -10 -10 -9
-7 2 -12 -3 -10 -10 1 -7 -7 -12 -20 -11 -12 1 -21 -4 -20 -10 1 -6 -8 -10
-20 -10 -12 1 -21 -4 -20 -10 1 -6 -4 -10 -10 -9 -7 2 -12 -3 -10 -10 1 -7 -7
-12 -20 -11 -12 1 -21 -4 -20 -10 1 -6 -8 -10 -20 -10 -12 1 -21 -4 -20 -10 1
-6 -4 -10 -10 -9 -7 2 -12 -3 -10 -10 1 -7 -7 -12 -20 -11 -12 1 -21 -4 -20
-10 1 -6 -8 -10 -20 -10 -12 1 -21 -4 -20 -10 1 -6 -4 -10 -10 -9 -7 2 -12 -3
-10 -10 1 -7 -7 -12 -20 -11 -12 1 -21 -4 -20 -10 1 -6 -8 -10 -20 -10 -12 1
-21 -4 -20 -10 1 -6 -4 -10 -10 -9 -7 2 -12 -3 -10 -10 1 -7 -7 -12 -20 -11
-12 1 -21 -4 -20 -10 1 -6 -8 -10 -20 -10 -12 1 -21 -4 -20 -10 1 -6 -4 -10
-10 -9 -7 2 -12 -3 -10 -10 1 -7 -7 -12 -20 -11 -12 1 -21 -4 -20 -10 1 -6 -4
-10 -10 -9 -7 2 -12 -3 -10 -10 1 -7 -7 -12 -20 -11 -12 1 -21 -4 -20 -10 1
-6 -8 -10 -20 -10 -12 1 -21 -4 -20 -10 1 -6 -4 -10 -10 -9 -7 2 -12 -3 -10
-10 1 -7 -7 -12 -20 -11 -12 1 -21 -4 -20 -10 1 -6 -8 -10 -20 -10 -12 1 -21
-4 -20 -10 1 -6 -4 -10 -10 -9 -7 2 -12 -3 -10 -10 1 -7 -7 -12 -20 -11 -12 1
-21 -4 -20 -10 1 -6 -8 -10 -20 -10 -12 1 -21 -4 -20 -10 1 -6 -4 -10 -10 -9
-7 2 -12 -3 -10 -10 1 -7 -7 -12 -20 -11 -12 1 -21 -4 -20 -10 1 -6 -8 -10
-20 -10 -12 1 -21 -4 -20 -10 1 -6 -4 -10 -10 -9 -7 2 -12 -3 -10 -10 1 -7 -7
-12 -20 -11 -12 1 -21 -4 -20 -10 1 -6 -8 -10 -20 -10 -12 1 -21 -4 -20 -10 1
-6 -4 -10 -10 -9 -7 2 -12 -3 -10 -10 1 -7 -7 -12 -20 -11 -12 1 -21 -4 -20
-10 1 -6 -8 -10 -20 -10 -12 1 -21 -4 -20 -10 1 -6 -4 -10 -10 -9 -7 2 -12 -3
-10 -10 1 -7 -7 -12 -20 -11 -12 1 -21 -4 -20 -10 1 -6 -8 -10 -20 -10 -12 1
-21 -4 -20 -10 1 -6 -4 -10 -10 -9 -7 2 -12 -3 -10 -10 1 -7 -7 -12 -20 -11
-12 1 -21 -4 -20 -10 1 -6 -8 -10 -20 -10 -12 1 -21 -4 -20 -10 1 -6 -4 -10
-10 -9 -7 2 -12 -3 -10 -10 1 -7 -7 -12 -20 -11 -12 1 -21 -4 -20 -10 1 -6 -8
-10 -20 -10 -12 1 -21 -4 -20 -10 1 -6 -4 -10 -10 -9 -7 2 -12 -3 -10 -10 1
-7 -7 -12 -20 -11 -12 1 -21 -4 -20 -10 1 -6 -4 -10 -10 -9 -7 2 -12 -3 -10
-10 1 -7 -7 -12 -20 -11 -12 1 -21 -4 -20 -10 1 -6 -8 -10 -20 -10 -12 1 -21
-4 -20 -10 1 -6 -4 -10 -10 -9 -7 2 -12 -3 -10 -10 1 -7 -7 -12 -20 -11 -12 1
-21 -4 -20 -10 1 -6 -8 -10 -20 -10 -12 1 -21 -4 -20 -10 1 -6 -4 -10 -10 -9
-7 2 -12 -3 -10 -10 1 -7 -7 -12 -20 -11 -12 1 -21 -4 -20 -10 1 -6 -8 -10
-20 -10 -12 1 -21 -4 -20 -10 1 -6 -4 -10 -10 -9 -7 2 -12 -3 -10 -10 1 -7 -7
-12 -20 -11 -12 1 -21 -4 -20 -10 1 -6 -8 -10 -20 -10 -12 1 -21 -4 -20 -10 1
-6 -4 -10 -10 -9 -7 2 -12 -3 -10 -10 1 -7 -7 -12 -20 -11 -12 1 -21 -4 -20
-10 1 -6 -8 -10 -20 -10 -12 1 -21 -4 -20 -10 1 -6 -4 -10 -10 -9 -7 2 -12 -3
-10 -10 1 -7 -7 -12 -20 -11 -12 1 -21 -4 -20 -10 1 -6 -8 -10 -20 -10 -12 1
-21 -4 -20 -10 1 -6 -4 -10 -10 -9 -7 2 -12 -3 -10 -10 1 -7 -7 -12 -20 -11
-12 1 -21 -4 -20 -10 1 -6 -7 -11 -19 -10 -11 1 -21 -5 -21 -12 0 -7 3 -13 6
-12 3 0 8 -1 11 -2 6 -3 64 -7 295 -20 203 -11 545 0 760 26 932 111 1762 443
2510 1006 200 150 346 278 535 467 309 309 545 611 765 976 82 136 292 546
297 580 2 11 7 23 11 26 5 3 10 15 12 25 2 10 4 20 5 22 2 1 4 7 5 12 1 6 3
11 5 13 9 11 5 34 -6 34 -7 0 -12 -5 -11 -11z m7 -21 c-7 -8 -9 -15 -4 -15 13
0 -16 -25 -29 -25 -7 -1 -11 -6 -9 -13 1 -7 -4 -11 -10 -9 -7 1 -12 -3 -11 -9
1 -6 -8 -11 -20 -10 -12 0 -21 -4 -20 -10 1 -6 -8 -11 -20 -10 -13 1 -21 -4
-19 -11 1 -7 -4 -12 -10 -10 -7 1 -12 -3 -11 -9 1 -6 -8 -11 -20 -10 -12 0
-21 -4 -20 -10 1 -6 -8 -11 -20 -10 -13 1 -21 -4 -19 -11 1 -7 -4 -12 -10 -10
-7 1 -12 -3 -11 -9 1 -6 -8 -11 -20 -10 -12 0 -21 -4 -20 -10 1 -6 -8 -11 -20
-10 -13 1 -21 -4 -19 -12 1 -6 -4 -11 -10 -10 -7 2 -12 -2 -11 -8 1 -6 -8 -11
-20 -10 -12 0 -21 -4 -20 -10 1 -6 -8 -11 -20 -10 -13 1 -21 -4 -19 -12 1 -6
-4 -11 -10 -10 -7 2 -12 -2 -11 -8 1 -6 -8 -11 -20 -10 -12 0 -21 -4 -20 -10
1 -6 -8 -11 -20 -10 -13 1 -21 -4 -19 -12 1 -6 -4 -11 -10 -10 -7 2 -12 -2
-11 -8 1 -6 -8 -11 -20 -10 -12 0 -21 -4 -20 -10 1 -6 -8 -11 -20 -10 -13 1
-21 -4 -19 -12 1 -6 -4 -11 -10 -10 -7 2 -12 -2 -11 -8 1 -6 -8 -11 -20 -10
-12 0 -21 -4 -20 -10 1 -6 -8 -11 -20 -10 -13 1 -21 -4 -20 -11 2 -7 -3 -12
-10 -10 -6 1 -11 -3 -10 -9 1 -6 -8 -11 -20 -10 -13 1 -21 -4 -20 -11 2 -7 -3
-12 -10 -10 -6 1 -11 -3 -10 -9 1 -6 -8 -11 -20 -10 -12 0 -21 -4 -20 -10 1
-6 -8 -11 -20 -10 -13 1 -21 -4 -20 -11 2 -7 -3 -12 -10 -10 -6 1 -11 -3 -10
-9 1 -6 -8 -11 -20 -10 -12 0 -21 -4 -20 -10 1 -6 -8 -11 -20 -10 -13 1 -21
-4 -20 -11 2 -7 -3 -12 -10 -10 -6 1 -11 -3 -10 -9 1 -6 -8 -11 -20 -10 -12 0
-21 -4 -20 -10 1 -6 -8 -11 -20 -10 -13 1 -21 -4 -20 -11 2 -7 -3 -12 -10 -10
-6 1 -11 -3 -10 -9 1 -6 -8 -11 -20 -10 -12 0 -21 -4 -20 -10 1 -6 -8 -11 -20
-10 -13 1 -21 -4 -20 -11 2 -7 -3 -12 -10 -10 -6 1 -11 -3 -10 -9 1 -6 -8 -11
-20 -10 -12 0 -21 -4 -20 -10 1 -6 -8 -11 -20 -10 -13 1 -21 -4 -20 -11 2 -7
-3 -12 -10 -10 -6 1 -11 -3 -10 -9 1 -6 -8 -11 -20 -10 -12 0 -21 -4 -20 -10
1 -6 -8 -11 -20 -10 -13 1 -21 -4 -20 -11 2 -7 -3 -12 -10 -10 -6 1 -11 -3
-10 -9 1 -6 -8 -11 -20 -10 -12 0 -21 -4 -20 -10 1 -6 -8 -11 -20 -10 -13 1
-21 -4 -19 -12 1 -6 -4 -11 -10 -10 -7 2 -12 -2 -11 -8 1 -6 -8 -11 -20 -10
-12 0 -21 -4 -20 -10 1 -6 -8 -11 -20 -10 -13 1 -21 -4 -19 -12 1 -6 -4 -11
-10 -10 -7 2 -12 -2 -11 -8 1 -6 -8 -11 -20 -10 -12 0 -21 -4 -20 -10 1 -6 -8
-11 -20 -10 -13 1 -21 -4 -19 -12 1 -6 -4 -11 -10 -10 -7 2 -12 -2 -11 -8 1
-6 -8 -11 -20 -10 -13 1 -21 -4 -19 -12 1 -6 -4 -11 -10 -10 -7 2 -12 -2 -11
-8 1 -6 -8 -11 -20 -10 -12 0 -21 -4 -20 -10 1 -6 -8 -11 -20 -10 -13 1 -21
-4 -19 -12 1 -6 -4 -11 -10 -10 -7 2 -12 -2 -11 -8 1 -6 -8 -11 -20 -10 -12 0
-21 -4 -20 -10 1 -6 -8 -11 -20 -10 -13 1 -21 -4 -19 -12 1 -6 -4 -11 -10 -10
-7 2 -12 -2 -11 -8 1 -6 -8 -11 -20 -10 -12 0 -21 -4 -20 -10 1 -6 -8 -11 -20
-10 -13 1 -21 -4 -19 -12 1 -6 -4 -11 -10 -10 -7 2 -12 -2 -11 -8 1 -6 -8 -11
-20 -10 -12 0 -21 -4 -20 -10 1 -6 -8 -11 -20 -10 -13 1 -21 -4 -19 -12 1 -6
-4 -11 -10 -10 -7 2 -12 -2 -11 -8 1 -6 -8 -11 -20 -10 -12 0 -21 -4 -20 -10
1 -6 -8 -11 -20 -10 -13 1 -21 -4 -19 -12 1 -6 -4 -11 -10 -10 -7 2 -12 -2
-11 -8 1 -6 -8 -11 -20 -10 -12 0 -21 -4 -20 -10 1 -6 -8 -11 -20 -10 -13 1
-21 -4 -19 -12 1 -6 -4 -11 -10 -10 -7 2 -12 -2 -11 -8 1 -6 -8 -11 -20 -10
-12 0 -21 -4 -20 -10 1 -6 -8 -11 -20 -10 -13 1 -21 -4 -19 -12 1 -6 -4 -11
-10 -10 -7 2 -12 -2 -11 -8 1 -6 -8 -11 -20 -10 -12 0 -21 -4 -20 -10 1 -6 -8
-11 -20 -10 -13 1 -21 -4 -19 -12 1 -6 -4 -11 -10 -10 -7 2 -12 -2 -11 -8 1
-6 -8 -11 -20 -10 -12 0 -21 -4 -20 -10 1 -6 -8 -11 -20 -10 -13 1 -21 -4 -19
-12 1 -6 -4 -11 -10 -10 -7 2 -12 -2 -11 -8 1 -6 -8 -11 -20 -10 -13 1 -21 -4
-19 -12 1 -6 -4 -11 -10 -10 -7 2 -12 -2 -11 -8 1 -6 -8 -11 -20 -10 -12 0
-21 -4 -20 -10 1 -6 -8 -11 -20 -10 -13 1 -21 -4 -19 -12 1 -6 -4 -11 -10 -10
-7 2 -12 -2 -11 -8 1 -6 -8 -11 -20 -10 -12 0 -21 -4 -20 -10 1 -6 -8 -11 -20
-10 -13 1 -21 -4 -20 -11 2 -7 -3 -12 -10 -10 -6 1 -11 -3 -10 -9 1 -6 -8 -11
-20 -10 -12 0 -21 -4 -20 -10 1 -6 -8 -11 -20 -10 -13 1 -21 -4 -20 -11 2 -7
-3 -12 -10 -10 -6 1 -11 -3 -10 -9 1 -6 -8 -11 -20 -10 -12 0 -21 -4 -20 -10
1 -6 -8 -11 -20 -10 -13 1 -21 -4 -20 -11 2 -7 -3 -12 -10 -10 -6 1 -11 -3
-10 -9 1 -6 -8 -11 -20 -10 -12 0 -21 -4 -20 -10 1 -6 -8 -11 -20 -10 -13 1
-21 -4 -20 -11 2 -7 -3 -12 -10 -10 -6 1 -11 -3 -10 -9 1 -6 -8 -11 -20 -10
-12 0 -21 -4 -20 -10 1 -6 -8 -11 -20 -10 -13 1 -21 -4 -20 -11 2 -7 -3 -12
-10 -10 -6 1 -11 -3 -10 -9 1 -6 -8 -11 -20 -10 -12 0 -21 -4 -20 -10 1 -6 -8
-11 -20 -10 -13 1 -21 -4 -20 -11 2 -7 -3 -12 -10 -10 -6 1 -11 -3 -10 -9 1
-6 -8 -11 -20 -10 -12 0 -21 -4 -20 -10 1 -6 -8 -11 -20 -10 -13 1 -21 -4 -20
-11 2 -7 -3 -12 -10 -10 -6 1 -11 -3 -10 -9 1 -6 -8 -11 -20 -10 -12 0 -21 -4
-20 -10 1 -6 -8 -11 -20 -10 -13 1 -21 -4 -20 -11 2 -7 -3 -12 -10 -10 -6 1
-11 -3 -10 -9 1 -6 -8 -11 -20 -10 -13 1 -21 -4 -20 -11 2 -7 -3 -12 -10 -10
-6 1 -11 -3 -10 -9 1 -6 -8 -11 -20 -10 -12 0 -21 -4 -20 -10 1 -6 -8 -11 -20
-10 -13 1 -21 -4 -20 -11 2 -7 -3 -12 -10 -10 -6 1 -11 -3 -10 -9 1 -6 -8 -11
-20 -10 -12 0 -21 -4 -20 -10 1 -6 -8 -11 -20 -10 -13 1 -21 -4 -20 -11 2 -7
-3 -12 -10 -10 -6 1 -11 -3 -10 -9 1 -6 -8 -11 -20 -10 -12 0 -21 -4 -20 -10
1 -6 -8 -11 -20 -10 -13 1 -21 -4 -20 -11 2 -7 -3 -12 -10 -10 -6 1 -11 -3
-10 -9 1 -6 -8 -11 -20 -10 -12 0 -21 -4 -20 -10 1 -6 -8 -11 -20 -10 -13 1
-21 -4 -20 -11 2 -7 -3 -12 -10 -10 -6 1 -11 -3 -10 -9 1 -6 -8 -11 -20 -10
-12 0 -21 -4 -20 -10 1 -6 -8 -11 -20 -10 -13 1 -21 -4 -20 -11 2 -7 -3 -12
-10 -10 -6 1 -11 -3 -10 -9 1 -6 -8 -11 -20 -10 -12 0 -21 -4 -20 -10 1 -6 -8
-11 -20 -10 -13 1 -21 -4 -20 -11 2 -7 -3 -12 -10 -10 -6 1 -11 -3 -10 -9 1
-6 -8 -11 -20 -10 -12 0 -21 -4 -20 -10 1 -6 -8 -11 -20 -10 -13 1 -21 -4 -20
-11 2 -7 -3 -12 -10 -10 -6 1 -11 -3 -10 -9 1 -6 -8 -11 -20 -10 -12 0 -21 -4
-20 -10 1 -6 -8 -11 -20 -10 -13 1 -21 -4 -20 -11 2 -7 -3 -12 -10 -10 -6 1
-11 -3 -10 -9 1 -6 -8 -11 -20 -10 -12 0 -21 -4 -20 -10 1 -6 -8 -11 -20 -10
-13 1 -21 -4 -20 -11 2 -7 -3 -12 -10 -10 -6 1 -11 -3 -10 -9 1 -6 -8 -11 -20
-10 -13 1 -21 -4 -20 -11 2 -7 -3 -12 -10 -10 -6 1 -11 -3 -10 -9 1 -6 -8 -11
-20 -10 -12 0 -21 -4 -20 -10 1 -6 -8 -11 -20 -10 -13 1 -21 -4 -20 -11 2 -7
-3 -12 -10 -10 -6 1 -11 -3 -10 -9 1 -6 -8 -11 -20 -10 -12 0 -21 -4 -20 -10
1 -6 -8 -11 -20 -10 -13 1 -21 -4 -20 -11 2 -7 -3 -12 -10 -10 -6 1 -11 -3
-10 -9 1 -6 -8 -11 -20 -10 -12 0 -21 -4 -20 -10 1 -6 -8 -11 -20 -10 -13 1
-21 -4 -20 -11 2 -7 -3 -12 -10 -10 -6 1 -11 -3 -10 -9 1 -6 -8 -11 -20 -10
-12 0 -21 -4 -20 -10 1 -6 -8 -11 -20 -10 -13 1 -21 -4 -20 -11 2 -7 -3 -12
-10 -10 -6 1 -11 -3 -10 -9 1 -6 -8 -11 -20 -10 -12 0 -21 -4 -20 -11 1 -6 -5
-10 -15 -8 -9 1 -21 0 -27 -4 -18 -10 -35 -9 -42 2 -3 7 -2 9 2 4 5 -4 17 0
27 10 10 9 18 12 18 8 0 -5 14 4 30 20 17 16 30 25 30 20 0 -4 9 0 20 10 11
10 20 14 20 10 0 -5 14 4 30 20 16 16 30 25 30 20 0 -4 9 0 20 10 11 10 20 14
20 10 0 -5 14 4 30 20 16 16 30 25 30 20 0 -4 9 0 20 10 11 10 20 14 20 10 0
-5 14 4 30 20 17 16 30 25 30 20 0 -4 9 0 20 10 11 10 20 14 20 10 0 -5 14 4
30 20 17 16 30 25 30 20 0 -4 9 0 20 10 11 10 20 14 20 10 0 -5 14 4 30 20 17
16 30 25 30 20 0 -4 9 0 20 10 11 10 20 14 20 10 0 -5 14 4 30 20 17 16 30 25
30 20 0 -5 14 4 30 20 17 16 30 25 30 20 0 -4 9 0 20 10 11 10 20 14 20 10 0
-5 14 4 30 20 17 16 30 25 30 20 0 -4 9 0 20 10 11 10 20 14 20 10 0 -5 14 4
30 20 17 16 30 25 30 20 0 -4 9 0 20 10 11 10 20 14 20 10 0 -5 14 4 30 20 17
16 30 25 30 20 0 -4 9 0 20 10 11 10 20 14 20 10 0 -5 14 4 30 20 17 16 30 25
30 20 0 -4 9 0 20 10 11 10 20 14 20 10 0 -5 14 4 30 20 17 16 30 25 30 20 0
-4 9 0 20 10 11 10 20 14 20 10 0 -5 14 4 30 20 17 16 30 25 30 20 0 -4 9 0
20 10 11 10 20 14 20 10 0 -5 14 4 30 20 17 16 30 25 30 20 0 -4 9 0 20 10 11
10 20 14 20 10 0 -5 14 4 30 20 17 16 30 25 30 20 0 -4 9 0 20 10 11 10 20 14
20 10 0 -5 14 4 30 20 17 16 30 25 30 20 0 -5 14 4 30 20 17 16 30 25 30 20 0
-4 9 0 20 10 11 10 20 14 20 10 0 -5 14 4 30 20 17 16 30 25 30 20 0 -4 9 0
20 10 11 10 20 14 20 10 0 -5 14 4 30 20 17 16 30 25 30 20 0 -4 9 0 20 10 11
10 20 14 20 10 0 -5 14 4 30 20 17 16 30 25 30 20 0 -4 9 0 20 10 11 10 20 14
20 10 0 -5 14 4 30 20 17 16 30 25 30 20 0 -4 9 0 20 10 11 10 20 14 20 10 0
-5 14 4 30 20 17 16 30 25 30 20 0 -4 9 0 20 10 11 10 20 14 20 10 0 -5 14 4
30 20 17 16 30 25 30 20 0 -4 9 0 20 10 11 10 20 14 20 10 0 -5 14 4 30 20 17
16 30 25 30 20 0 -4 9 0 20 10 11 10 20 14 20 10 0 -5 14 4 30 20 17 16 30 25
30 20 0 -4 9 0 20 10 11 10 20 14 20 10 0 -5 14 4 30 20 17 16 30 25 30 20 0
-5 14 4 30 20 17 16 30 25 30 20 0 -4 9 0 20 10 11 10 20 14 20 10 0 -5 14 4
30 20 17 16 30 25 30 20 0 -4 9 0 20 10 11 10 20 14 20 10 0 -5 14 4 30 20 17
16 30 25 30 20 0 -4 9 0 20 10 11 10 20 14 20 10 0 -5 14 4 30 20 17 16 30 25
30 20 0 -4 9 0 20 10 11 10 20 14 20 10 0 -5 14 4 30 20 17 16 30 25 30 20 0
-4 9 0 20 10 11 10 20 14 20 10 0 -5 14 4 30 20 17 16 30 25 30 20 0 -4 9 0
20 10 11 10 20 14 20 10 0 -5 14 4 30 20 17 16 30 25 30 20 0 -4 9 0 20 10 11
10 20 14 20 10 0 -5 14 4 30 20 17 16 30 25 30 20 0 -4 9 0 20 10 11 10 20 14
20 10 0 -5 14 4 30 20 17 16 30 25 30 20 0 -4 9 0 20 10 11 10 20 14 20 10 0
-5 14 4 30 20 17 16 30 25 30 20 0 -5 14 4 30 20 17 16 30 25 30 20 0 -4 9 0
20 10 11 10 20 14 20 10 0 -5 14 4 30 20 17 16 30 25 30 20 0 -4 9 0 20 10 11
10 20 14 20 10 0 -5 14 4 30 20 17 16 30 25 30 20 0 -4 9 0 20 10 11 10 20 14
20 10 0 -5 14 4 30 20 17 16 30 25 30 20 0 -4 9 0 20 10 11 10 20 14 20 10 0
-5 14 4 30 20 17 16 30 25 30 20 0 -4 9 0 20 10 11 10 20 14 20 10 0 -5 14 4
30 20 17 16 30 25 30 20 0 -4 9 0 20 10 11 10 20 14 20 10 0 -5 14 4 30 20 17
16 30 25 30 20 0 -4 9 0 20 10 11 10 20 14 20 10 0 -5 14 4 30 20 17 16 30 25
30 20 0 -4 9 0 20 10 11 10 20 14 20 10 0 -5 14 4 30 20 17 16 30 25 30 20 0
-4 9 0 20 10 11 10 20 14 20 10 0 -5 14 4 30 20 17 16 30 25 30 20 0 -5 14 4
30 20 17 16 30 25 30 20 0 -4 9 0 20 10 11 10 20 14 20 10 0 -5 14 4 30 20 17
16 30 25 30 20 0 -4 9 0 20 10 11 10 20 14 20 10 0 -5 14 4 30 20 17 16 30 25
30 20 0 -4 9 0 20 10 11 10 20 14 20 10 0 -5 14 4 30 20 17 16 30 25 30 20 0
-4 9 0 20 10 11 10 20 14 20 10 0 -5 14 4 30 20 17 16 30 25 30 20 0 -4 9 0
20 10 11 10 20 14 20 10 0 -5 14 4 30 20 17 16 30 25 30 20 0 -4 8 -1 18 8 10
10 21 15 24 12 3 -3 13 4 23 15 21 23 34 27 15 5z"/>
<path d="M9770 3125 c-7 -8 -16 -13 -20 -10 -4 2 -18 -8 -31 -23 -18 -20 -19
-22 -3 -9 11 9 23 15 26 12 2 -3 15 6 28 20 13 14 21 25 18 25 -3 0 -11 -7
-18 -15z"/>
<path d="M9670 3065 c-7 -8 -16 -13 -20 -10 -4 2 -18 -8 -31 -23 -18 -20 -19
-22 -3 -9 11 9 23 15 26 12 2 -3 15 6 28 20 13 14 21 25 18 25 -3 0 -11 -7
-18 -15z"/>
<path d="M9570 3005 c-7 -8 -16 -13 -20 -10 -4 2 -18 -8 -31 -23 -18 -20 -19
-22 -3 -9 11 9 23 15 26 12 2 -3 15 6 28 20 13 14 21 25 18 25 -3 0 -11 -7
-18 -15z"/>
<path d="M9470 2945 c-7 -8 -16 -13 -20 -10 -4 2 -18 -8 -31 -23 -18 -20 -19
-22 -3 -9 11 9 23 15 26 12 2 -3 15 6 28 20 13 14 21 25 18 25 -3 0 -11 -7
-18 -15z"/>
<path d="M9370 2885 c-7 -8 -16 -13 -20 -10 -4 2 -18 -8 -31 -23 -18 -20 -19
-22 -3 -9 11 9 23 15 26 12 2 -3 15 6 28 20 13 14 21 25 18 25 -3 0 -11 -7
-18 -15z"/>
<path d="M9270 2825 c-7 -8 -16 -13 -20 -10 -4 2 -18 -8 -31 -23 -18 -20 -19
-22 -3 -9 11 9 23 15 26 12 2 -3 15 6 28 20 13 14 21 25 18 25 -3 0 -11 -7
-18 -15z"/>
<path d="M9159 2753 l-24 -28 28 24 c25 23 32 31 24 31 -2 0 -14 -12 -28 -27z"/>
<path d="M9109 2723 c-13 -16 -12 -17 4 -4 16 13 21 21 13 21 -2 0 -10 -8 -17
-17z"/>
<path d="M9059 2693 l-24 -28 28 24 c15 14 27 26 27 28 0 8 -8 1 -31 -24z"/>
<path d="M9010 2665 c-7 -8 -16 -13 -20 -10 -4 2 -18 -8 -31 -23 -18 -20 -19
-22 -3 -9 11 9 23 15 26 12 2 -3 15 6 28 20 13 14 21 25 18 25 -3 0 -11 -7
-18 -15z"/>
<path d="M8910 2605 c-7 -8 -16 -13 -20 -10 -4 2 -18 -8 -31 -23 -18 -20 -19
-22 -3 -9 11 9 23 15 26 12 2 -3 15 6 28 20 13 14 21 25 18 25 -3 0 -11 -7
-18 -15z"/>
<path d="M8810 2545 c-7 -8 -16 -13 -20 -10 -4 2 -18 -8 -31 -23 -18 -20 -19
-22 -3 -9 11 9 23 15 26 12 2 -3 15 6 28 20 13 14 21 25 18 25 -3 0 -11 -7
-18 -15z"/>
<path d="M8710 2485 c-7 -8 -16 -13 -20 -10 -4 2 -18 -8 -31 -23 -18 -20 -19
-22 -3 -9 11 9 23 15 26 12 2 -3 15 6 28 20 13 14 21 25 18 25 -3 0 -11 -7
-18 -15z"/>
<path d="M8610 2425 c-7 -8 -16 -13 -20 -10 -4 2 -18 -8 -31 -23 -18 -20 -19
-22 -3 -9 11 9 23 15 26 12 2 -3 15 6 28 20 13 14 21 25 18 25 -3 0 -11 -7
-18 -15z"/>
<path d="M8510 2365 c-7 -8 -16 -13 -20 -10 -4 2 -18 -8 -31 -23 -18 -20 -19
-22 -3 -9 11 9 23 15 26 12 2 -3 15 6 28 20 13 14 21 25 18 25 -3 0 -11 -7
-18 -15z"/>
<path d="M8410 2305 c-7 -8 -16 -13 -20 -10 -4 2 -18 -8 -31 -23 -18 -20 -19
-22 -3 -9 11 9 23 15 26 12 2 -3 15 6 28 20 13 14 21 25 18 25 -3 0 -11 -7
-18 -15z"/>
<path d="M8310 2245 c-7 -8 -16 -13 -20 -10 -4 2 -18 -8 -31 -23 -18 -20 -19
-22 -3 -9 11 9 23 15 26 12 2 -3 15 6 28 20 13 14 21 25 18 25 -3 0 -11 -7
-18 -15z"/>
<path d="M8199 2173 l-24 -28 28 24 c15 14 27 26 27 28 0 8 -8 1 -31 -24z"/>
<path d="M8149 2143 c-13 -16 -12 -17 4 -4 16 13 21 21 13 21 -2 0 -10 -8 -17
-17z"/>
<path d="M8099 2113 l-24 -28 28 24 c15 14 27 26 27 28 0 8 -8 1 -31 -24z"/>
<path d="M8050 2085 c-7 -8 -16 -13 -20 -10 -4 2 -18 -8 -31 -23 -18 -20 -19
-22 -3 -9 11 9 23 15 26 12 2 -3 15 6 28 20 13 14 21 25 18 25 -3 0 -11 -7
-18 -15z"/>
<path d="M7950 2025 c-7 -8 -16 -13 -20 -10 -4 2 -18 -8 -31 -23 -18 -20 -19
-22 -3 -9 11 9 23 15 26 12 2 -3 15 6 28 20 13 14 21 25 18 25 -3 0 -11 -7
-18 -15z"/>
<path d="M7850 1965 c-7 -8 -16 -13 -20 -10 -4 2 -18 -8 -31 -23 -18 -20 -19
-22 -3 -9 11 9 23 15 26 12 2 -3 15 6 28 20 13 14 21 25 18 25 -3 0 -11 -7
-18 -15z"/>
<path d="M7750 1905 c-7 -8 -16 -13 -20 -10 -4 2 -18 -8 -31 -23 -18 -20 -19
-22 -3 -9 11 9 23 15 26 12 2 -3 15 6 28 20 13 14 21 25 18 25 -3 0 -11 -7
-18 -15z"/>
<path d="M7650 1845 c-7 -8 -16 -13 -20 -10 -4 2 -18 -8 -31 -23 -18 -20 -19
-22 -3 -9 11 9 23 15 26 12 2 -3 15 6 28 20 13 14 21 25 18 25 -3 0 -11 -7
-18 -15z"/>
<path d="M7550 1785 c-7 -8 -16 -13 -20 -10 -4 2 -18 -8 -31 -23 -18 -20 -19
-22 -3 -9 11 9 23 15 26 12 2 -3 15 6 28 20 13 14 21 25 18 25 -3 0 -11 -7
-18 -15z"/>
<path d="M7450 1725 c-7 -8 -16 -13 -20 -10 -4 2 -18 -8 -31 -23 -18 -20 -19
-22 -3 -9 11 9 23 15 26 12 2 -3 15 6 28 20 13 14 21 25 18 25 -3 0 -11 -7
-18 -15z"/>
<path d="M7350 1665 c-7 -8 -16 -13 -20 -10 -4 2 -18 -8 -31 -23 -18 -20 -19
-22 -3 -9 11 9 23 15 26 12 2 -3 15 6 28 20 13 14 21 25 18 25 -3 0 -11 -7
-18 -15z"/>
<path d="M7239 1593 l-24 -28 28 24 c15 14 27 26 27 28 0 8 -8 1 -31 -24z"/>
<path d="M7189 1563 c-13 -16 -12 -17 4 -4 16 13 21 21 13 21 -2 0 -10 -8 -17
-17z"/>
<path d="M7139 1533 l-24 -28 28 24 c15 14 27 26 27 28 0 8 -8 1 -31 -24z"/>
<path d="M7090 1505 c-7 -8 -16 -13 -20 -10 -4 2 -18 -8 -31 -23 -18 -20 -19
-22 -3 -9 11 9 23 15 26 12 2 -3 15 6 28 20 13 14 21 25 18 25 -3 0 -11 -7
-18 -15z"/>
<path d="M6990 1445 c-7 -8 -16 -13 -20 -10 -4 2 -18 -8 -31 -23 -18 -20 -19
-22 -3 -9 11 9 23 15 26 12 2 -3 15 6 28 20 13 14 21 25 18 25 -3 0 -11 -7
-18 -15z"/>
<path d="M6890 1385 c-7 -8 -16 -13 -20 -10 -4 2 -18 -8 -31 -23 -18 -20 -19
-22 -3 -9 11 9 23 15 26 12 2 -3 15 6 28 20 13 14 21 25 18 25 -3 0 -11 -7
-18 -15z"/>
<path d="M6790 1325 c-7 -8 -16 -13 -20 -10 -4 2 -18 -8 -31 -23 -18 -20 -19
-22 -3 -9 11 9 23 15 26 12 2 -3 15 6 28 20 13 14 21 25 18 25 -3 0 -11 -7
-18 -15z"/>
<path d="M6690 1265 c-7 -8 -16 -13 -20 -10 -4 2 -18 -8 -31 -23 -18 -20 -19
-22 -3 -9 11 9 23 15 26 12 2 -3 15 6 28 20 13 14 21 25 18 25 -3 0 -11 -7
-18 -15z"/>
<path d="M6590 1205 c-7 -8 -16 -13 -20 -10 -4 2 -18 -8 -31 -23 -18 -20 -19
-22 -3 -9 11 9 23 15 26 12 2 -3 15 6 28 20 13 14 21 25 18 25 -3 0 -11 -7
-18 -15z"/>
<path d="M6490 1145 c-7 -8 -16 -13 -20 -10 -4 2 -18 -8 -31 -23 -18 -20 -19
-22 -3 -9 11 9 23 15 26 12 2 -3 15 6 28 20 13 14 21 25 18 25 -3 0 -11 -7
-18 -15z"/>
<path d="M6390 1085 c-7 -8 -16 -13 -20 -10 -4 2 -18 -8 -31 -23 -18 -20 -19
-22 -3 -9 11 9 23 15 26 12 2 -3 15 6 28 20 13 14 21 25 18 25 -3 0 -11 -7
-18 -15z"/>
<path d="M6279 1013 l-24 -28 28 24 c15 14 27 26 27 28 0 8 -8 1 -31 -24z"/>
<path d="M6229 983 c-13 -16 -12 -17 4 -4 16 13 21 21 13 21 -2 0 -10 -8 -17
-17z"/>
<path d="M6179 953 l-24 -28 28 24 c15 14 27 26 27 28 0 8 -8 1 -31 -24z"/>
<path d="M6130 925 c-7 -8 -16 -13 -20 -10 -4 2 -18 -8 -31 -23 -18 -20 -19
-22 -3 -9 11 9 23 15 26 12 2 -3 15 6 28 20 13 14 21 25 18 25 -3 0 -11 -7
-18 -15z"/>
<path d="M6030 865 c-7 -8 -16 -13 -20 -10 -4 2 -18 -8 -31 -23 -18 -20 -19
-22 -3 -9 11 9 23 15 26 12 2 -3 15 6 28 20 13 14 21 25 18 25 -3 0 -11 -7
-18 -15z"/>
<path d="M5930 805 c-7 -8 -16 -13 -20 -10 -4 2 -18 -8 -31 -23 -18 -20 -19
-22 -3 -9 11 9 23 15 26 12 2 -3 15 6 28 20 13 14 21 25 18 25 -3 0 -11 -7
-18 -15z"/>
<path d="M5830 745 c-7 -8 -16 -13 -20 -10 -4 2 -18 -8 -31 -23 -18 -20 -19
-22 -3 -9 11 9 23 15 26 12 2 -3 15 6 28 20 13 14 21 25 18 25 -3 0 -11 -7
-18 -15z"/>
<path d="M5730 685 c-7 -8 -16 -13 -20 -10 -4 2 -18 -8 -31 -23 -18 -20 -19
-22 -3 -9 11 9 23 15 26 12 2 -3 15 6 28 20 13 14 21 25 18 25 -3 0 -11 -7
-18 -15z"/>
<path d="M5630 625 c-7 -8 -16 -13 -20 -10 -4 2 -18 -8 -31 -23 -18 -20 -19
-22 -3 -9 11 9 23 15 26 12 2 -3 15 6 28 20 13 14 21 25 18 25 -3 0 -11 -7
-18 -15z"/>
<path d="M5530 565 c-7 -8 -16 -13 -20 -10 -4 2 -18 -8 -31 -23 -18 -20 -19
-22 -3 -9 11 9 23 15 26 12 2 -3 15 6 28 20 13 14 21 25 18 25 -3 0 -11 -7
-18 -15z"/>
<path d="M5430 505 c-7 -8 -16 -13 -20 -10 -4 2 -18 -8 -31 -23 -18 -20 -19
-22 -3 -9 11 9 23 15 26 12 2 -3 15 6 28 20 13 14 21 25 18 25 -3 0 -11 -7
-18 -15z"/>
<path d="M5319 433 l-24 -28 28 24 c25 23 32 31 24 31 -2 0 -14 -12 -28 -27z"/>
<path d="M5269 403 c-13 -16 -12 -17 4 -4 9 7 17 15 17 17 0 8 -8 3 -21 -13z"/>
<path d="M5219 373 l-24 -28 28 24 c25 23 32 31 24 31 -2 0 -14 -12 -28 -27z"/>
<path d="M5170 345 c-7 -8 -16 -13 -20 -10 -4 2 -18 -8 -31 -23 -18 -20 -19
-22 -3 -9 11 9 23 15 26 12 2 -3 15 6 28 20 13 14 21 25 18 25 -3 0 -11 -7
-18 -15z"/>
<path d="M5070 285 c-7 -8 -16 -13 -20 -10 -4 2 -18 -8 -31 -23 -18 -20 -19
-22 -3 -9 11 9 23 15 26 12 2 -3 15 6 28 20 13 14 21 25 18 25 -3 0 -11 -7
-18 -15z"/>
<path d="M4970 225 c-7 -8 -16 -13 -20 -10 -4 2 -18 -8 -31 -23 -18 -20 -19
-22 -3 -9 11 9 23 15 26 12 2 -3 15 6 28 20 13 14 21 25 18 25 -3 0 -11 -7
-18 -15z"/>
<path d="M4870 165 c-7 -8 -16 -13 -20 -10 -4 2 -18 -8 -31 -23 -18 -20 -19
-22 -3 -9 11 9 23 15 26 12 2 -3 15 6 28 20 13 14 21 25 18 25 -3 0 -11 -7
-18 -15z"/>
<path d="M4770 105 c-7 -8 -16 -13 -20 -10 -4 2 -18 -8 -31 -23 -18 -20 -19
-22 -3 -9 11 9 23 15 26 12 2 -3 15 6 28 20 13 14 21 25 18 25 -3 0 -11 -7
-18 -15z"/>
</g>
</svg>
